<svg xmlns="http://www.w3.org/2000/svg" xml:space="preserve" width="1280" height="1024"><rect width="1280" height="1024" x="-640" y="-512" paint-order="stroke" rx="0" ry="0" style="opacity:1;fill:#001118;fill-rule:nonzero;stroke:none;stroke-width:0;stroke-linecap:butt;stroke-linejoin:miter;stroke-miterlimit:4;stroke-dasharray:none;stroke-dashoffset:0" transform="matrix(.28759 0 0 .35342 640.318 402.051)"/><g paint-order="stroke"><g transform="translate(640 402.455)scale(1.98893)"><linearGradient id="a" x1="90.53" x2="90.53" y1="-2.58" y2="251.11" gradientUnits="userSpaceOnUse"><stop offset="0%" style="stop-color:#00a651;stop-opacity:1"/><stop offset="100%" style="stop-color:#010028;stop-opacity:1"/></linearGradient><path d="M76.91 40.15c.34.32.71.6 1.12.84l2.58 1.49c-4.86 8.44-12.16 12.16-17.95 13.79-3.83 1.08-7.38 1.37-10.01 1.39-.29-.25-.6-.47-.94-.66l-1.27-.72.08 10.18L39.4 73l-11.22-6.36-.08-10.25-.02-2.65 8.95-5.26c.13-6.45 1.3-12.45 3.47-17.9.95 1.24 2.14 2.28 3.49 3.07-1.56 4.41-2.48 9.33-2.6 14.8l8.37 4.75c1.93.16 6.67.31 11.86-1.17 6.82-1.95 11.93-5.94 15.29-11.88m-59.06 92.69c-4.9-8.16-7.99-17.75-8.19-27.34-.12 0-.23.01-.35.01-1.37 0-2.74-.25-4.02-.73.03 10.2 3.06 20.73 8.82 30.31 5.9 9.82 14.03 17.58 23.3 22.37.59-1.36 1.42-2.6 2.45-3.64-9.13-4.63-16.77-12.27-22.01-20.98m42.26 29.28c0 .23 0 .46-.02.68 6.03-.17 12.06-1.57 17.97-4.2a6.1 6.1 0 0 1-1.97-3.9c-5.66 2.49-11.22 3.67-16.56 3.77.37 1.15.58 2.38.58 3.65m-16.93-54.57c1.44-2.22 3.6-6.1 4.89-11 1.51-5.73 2.01-13.74-2.57-22.07l-3.05 1.79c-.24.14-.49.26-.74.37 3.15 5.75 3.88 12 2.16 18.65-1.17 4.52-3.22 8.13-4.48 10.04h-.01l-10.53 5.97c-4.27-2.78-7.9-6.05-10.84-9.74-.98 1.12-2.16 2.03-3.47 2.69 3.38 4.25 7.59 7.99 12.58 11.13.31-.27.64-.5 1-.71h.02l-.08 9.91 11.12 6.54 11.22-6.36.08-10.16v-.22l21.05-11.94c-.71-1.1-1.1-2.4-1.1-3.75v-.64l-22.1 12.54-5.16-3.03Zm6.01-78.36c5.14 0 9.31-4.17 9.31-9.31 0-3.57-2.02-6.67-4.97-8.23a9.3 9.3 0 0 0-4.34-1.08c-3.28 0-6.16 1.7-7.82 4.27a9.24 9.24 0 0 0-1.49 5.04c0 5.14 4.17 9.31 9.31 9.31m0 119.95c-1.07 0-2.1.19-3.06.53-2.16-4.23-3.67-9.04-4.35-14.44-1.39.6-2.95.66-4.38.17.71 5.97 2.38 11.49 4.97 16.47.19-.11.37-.21.56-.31a9.28 9.28 0 0 0-3.06 6.88c0 5.14 4.17 9.31 9.31 9.31s9.31-4.17 9.31-9.31c0-1.1-.2-2.15-.55-3.13-1.29-3.6-4.72-6.18-8.76-6.18ZM4.75 98.46c4.48 2.52 10.16.92 12.67-3.56a9.3 9.3 0 0 0-2.17-11.71c2.67-4.55 6.36-8.78 11.23-12.5a6.12 6.12 0 0 1-2.51-3.57c-5.31 4.03-9.55 8.78-12.64 14.15a9.7 9.7 0 0 0-1.92-.23q-.3-2.34-.36-4.77c-.44-18.85 10.49-38.87 26.6-48.69.88-.54 1.77-1.04 2.67-1.51-.22-.92-.34-1.87-.34-2.85 0-.66.05-1.3.16-1.93-1.6.76-3.19 1.61-4.75 2.56-8.61 5.24-15.9 13.05-21.11 22.57-5.2 9.52-7.82 19.88-7.59 29.95.05 1.92.2 3.8.45 5.65a9.2 9.2 0 0 0-3.8 3.53l-.15.24c-2.52 4.48-.92 10.16 3.56 12.67m121.5-32.07-21.99 12.47-11.55-6.67V46.85c-.7.27-1.44.41-2.18.41s-1.48-.14-2.18-.41v25.34L76.8 78.86 54.81 66.39a6.1 6.1 0 0 1-2.15 3.8L74.1 82.35l.66-.38v16.31l15.79 9.11 15.79-9.11V81.97l.66.38 21.44-12.16a6.1 6.1 0 0 1-2.15-3.8Zm-22.1-26.24c-.34.32-.71.6-1.12.84l-2.58 1.49c4.86 8.44 12.16 12.16 17.95 13.79 3.83 1.08 7.38 1.37 10.01 1.39.29-.25.6-.47.94-.66l1.27-.72-.08 10.18L141.66 73l11.22-6.36.08-10.25.02-2.65-8.95-5.26c-.13-6.45-1.3-12.45-3.47-17.9-.95 1.24-2.14 2.28-3.49 3.07 1.56 4.41 2.48 9.33 2.6 14.8l-8.37 4.75c-1.93.16-6.67.31-11.86-1.17-6.82-1.95-11.93-5.94-15.29-11.88M90.53 0c-13.7 0-26.5 4.24-36.14 11.94 1.47.56 2.8 1.41 3.92 2.46C67.47 7.61 79.2 4.36 90.52 4.36s23.05 3.25 32.21 10.04c1.13-1.06 2.46-1.9 3.92-2.46C117.02 4.24 104.22 0 90.53 0m30.76 164.96c-8.93 6.09-20.03 9-30.76 9s-21.83-2.91-30.76-9c-.36 1.46-.99 2.81-1.84 4 9.14 6.07 20.52 9.36 32.61 9.36 12.08 0 23.47-3.3 32.61-9.36-.85-1.19-1.48-2.54-1.84-4Zm19.91-11.14a11.7 11.7 0 0 1 2.45 3.64c9.27-4.79 17.39-12.55 23.3-22.37 5.76-9.59 8.79-20.11 8.82-30.31-1.29.48-2.65.73-4.02.73-.12 0-.23 0-.35-.01-.21 9.59-3.29 19.18-8.19 27.34-5.23 8.71-12.88 16.35-22.01 20.98m-19.68 4.64c-5.34-.1-10.9-1.27-16.56-3.77-.15 1.51-.85 2.9-1.97 3.9 5.9 2.62 11.94 4.03 17.97 4.2-.01-.23-.02-.45-.02-.68 0-1.27.21-2.5.58-3.65M100.16 22.92l-9.64-5.56-9.64 5.56c-6.74-3.57-13.65-5.57-20.51-6 .83 1.36 1.4 2.9 1.64 4.54 5.47.59 10.97 2.27 16.35 5.06l.98-.57V36.7l11.17 6.45 11.17-6.45V25.95l.98.57c5.38-2.79 10.88-4.47 16.35-5.06.24-1.64.81-3.18 1.64-4.54-6.86.42-13.78 2.42-20.51 6Zm27.05 102.02-.07-4.25c-2.46.1-5.51.45-8.75 1.36-6.62 1.86-15.21 6.46-19.88 17.72l-5.81-3.35v-23.55a7.1 7.1 0 0 1-2.18.35 7.1 7.1 0 0 1-2.18-.35v23.55l-5.81 3.35c-4.67-11.26-13.26-15.86-19.88-17.72-3.24-.91-6.29-1.26-8.75-1.36l-.07 4.25v.12c2.15.09 4.81.41 7.64 1.2 8.85 2.49 14.86 8.37 17.88 17.48v10.77l11.17 6.45 11.17-6.45v-10.77c3.02-9.11 9.03-15 17.88-17.48 2.82-.79 5.49-1.11 7.64-1.2zm5.5-14.36-22.1-12.54v.64c0 1.35-.4 2.65-1.1 3.75l21.05 11.94v.22l.08 10.16 11.22 6.36 11.12-6.54-.08-9.92h.02c.36.21.69.45 1 .72 4.99-3.14 9.2-6.88 12.58-11.13-1.31-.67-2.49-1.58-3.47-2.69-2.94 3.69-6.57 6.96-10.84 9.74l-10.53-5.97h-.01c-1.26-1.91-3.31-5.51-4.48-10.04-1.72-6.66-.99-12.91 2.16-18.65-.25-.11-.5-.23-.74-.37l-3.05-1.79c-4.57 8.33-4.08 16.34-2.57 22.07 1.29 4.9 3.45 8.78 4.89 11l-5.16 3.03Zm8.46-90.7c0-1.86-.55-3.58-1.49-5.04-1.66-2.57-4.54-4.27-7.82-4.27-1.57 0-3.04.39-4.34 1.08-2.95 1.56-4.97 4.66-4.97 8.23 0 5.14 4.17 9.31 9.31 9.31s9.31-4.17 9.31-9.31M123.1 155.32c-.35.98-.55 2.03-.55 3.13 0 5.14 4.17 9.31 9.31 9.31s9.31-4.17 9.31-9.31c0-2.73-1.18-5.18-3.06-6.88.19.1.38.2.56.31 2.59-4.98 4.26-10.5 4.97-16.47a6.08 6.08 0 0 1-4.38-.17c-.68 5.4-2.19 10.21-4.35 14.44a9.4 9.4 0 0 0-3.06-.53c-4.04 0-7.47 2.58-8.76 6.18Zm56.76-69.54-.15-.24a9.33 9.33 0 0 0-3.8-3.53c.25-1.84.41-3.73.45-5.65.24-10.08-2.39-20.43-7.59-29.95s-12.5-17.32-21.11-22.57c-1.56-.95-3.15-1.8-4.75-2.56.1.63.16 1.27.16 1.93 0 .98-.12 1.94-.34 2.85.9.47 1.79.97 2.67 1.51 16.11 9.81 27.04 29.83 26.6 48.69a47 47 0 0 1-.36 4.77c-.64 0-1.28.08-1.92.23-3.09-5.37-7.33-10.12-12.64-14.15a6.04 6.04 0 0 1-2.51 3.57c4.87 3.72 8.56 7.95 11.23 12.5-.81.67-1.49 1.46-2.01 2.33a9.3 9.3 0 0 0-.16 9.38c2.52 4.48 8.19 6.08 12.67 3.56s6.08-8.19 3.56-12.67M17.85 132.84c-4.9-8.16-7.99-17.75-8.19-27.34-.12 0-.23.01-.35.01-1.37 0-2.74-.25-4.02-.73.03 10.2 3.06 20.73 8.82 30.31 5.9 9.82 14.03 17.58 23.3 22.37.59-1.36 1.42-2.6 2.45-3.64-9.13-4.63-16.77-12.27-22.01-20.98m42.26 29.28c0 .23 0 .46-.02.68 6.03-.17 12.06-1.57 17.97-4.2a6.1 6.1 0 0 1-1.97-3.9c-5.66 2.49-11.22 3.67-16.56 3.77.37 1.15.58 2.38.58 3.65M90.53 0c-13.7 0-26.5 4.24-36.14 11.94 1.47.56 2.8 1.41 3.92 2.46C67.47 7.61 79.2 4.36 90.52 4.36s23.05 3.25 32.21 10.04c1.13-1.06 2.46-1.9 3.92-2.46C117.02 4.24 104.22 0 90.53 0m30.76 164.96c-8.93 6.09-20.03 9-30.76 9s-21.83-2.91-30.76-9c-.36 1.46-.99 2.81-1.84 4 9.14 6.07 20.52 9.36 32.61 9.36 12.08 0 23.47-3.3 32.61-9.36-.85-1.19-1.48-2.54-1.84-4Zm19.91-11.14a11.7 11.7 0 0 1 2.45 3.64c9.27-4.79 17.39-12.55 23.3-22.37 5.76-9.59 8.79-20.11 8.82-30.31-1.29.48-2.65.73-4.02.73-.12 0-.23 0-.35-.01-.21 9.59-3.29 19.18-8.19 27.34-5.23 8.71-12.88 16.35-22.01 20.98m-19.68 4.64c-5.34-.1-10.9-1.27-16.56-3.77-.15 1.51-.85 2.9-1.97 3.9 5.9 2.62 11.94 4.03 17.97 4.2-.01-.23-.02-.45-.02-.68 0-1.27.21-2.5.58-3.65" style="stroke:none;stroke-width:0;stroke-dasharray:none;stroke-linecap:butt;stroke-dashoffset:0;stroke-linejoin:miter;stroke-miterlimit:4;fill:url(#a);fill-rule:nonzero;opacity:1" transform="translate(-90.525 -89.16)"/></g><path d="m30.78 65.1-.08-9.87 8.51-5 8.59 4.87.08 9.87-8.51 5zm8.44 62.99 8.59-4.87.08-9.87-8.51-5-8.59 4.87-.08 9.87zM55.88 19.88c0-2.48-1.37-4.75-3.57-5.92a6.67 6.67 0 0 0-8.73 2.3 6.64 6.64 0 0 0-1.07 3.62c0 3.69 3 6.69 6.69 6.69s6.69-3 6.69-6.69Zm0 138.57c0-.75-.13-1.51-.4-2.25a6.7 6.7 0 0 0-6.29-4.44c-.73 0-1.47.13-2.2.38l-.07.02a6.36 6.36 0 0 0-3.87 3.62c-.32.72-.54 1.58-.55 2.58-.04 3.39 2.53 6.34 5.9 6.73 4.04.47 7.48-2.69 7.48-6.64M15.14 93.61a6.69 6.69 0 0 0-1.56-8.41l-1.25-1.04-1.56-.35c-.46-.1-.92-.16-1.38-.16l-1.62-.02-1.45.73a6.67 6.67 0 0 0-2.73 2.54l-.14.23-.06.12a6.7 6.7 0 0 0-.51 4.91 6.63 6.63 0 0 0 3.16 4.02c1.01.57 2.11.86 3.27.86 2.42 0 4.66-1.31 5.84-3.42Zm75.39 10.75 13.17-7.6v-15.2l-13.17-7.6-13.17 7.6v15.2zm51.15-34.38 8.59-4.87.08-9.87-8.51-5-8.59 4.87-.08 9.87zM90.53 40.13l8.55-4.94v-9.87l-8.55-4.94-8.55 4.94v9.87zm0 117.81 8.55-4.94v-9.87l-8.55-4.94-8.55 4.94V153zm51.31-29.85 8.51-5-.08-9.87-8.59-4.87-8.51 5 .08 9.87zm-3.29-108.21c0-1.28-.37-2.53-1.07-3.62a6.67 6.67 0 0 0-5.62-3.07 6.6 6.6 0 0 0-3.11.77 6.68 6.68 0 0 0-3.57 5.92c0 3.69 3 6.69 6.69 6.69s6.69-3 6.69-6.69Zm0 138.57c0-1.04-.23-1.93-.55-2.67a7.3 7.3 0 0 0-3.69-3.54l-.25-.11c-.72-.25-1.46-.38-2.2-.38-2.81 0-5.34 1.78-6.29 4.44-.55 1.55-.54 3.17.09 4.69 1.11 2.69 3.71 4.41 6.61 4.24 3.5-.21 6.28-3.13 6.28-6.68Zm36.46-62.28a6.65 6.65 0 0 0 3.17-4.02c.46-1.65.28-3.39-.51-4.91l-.06-.12-.14-.23c-.66-1.1-1.6-1.97-2.73-2.53l-1.45-.73-1.62.02c-.45 0-.92.06-1.38.16l-1.56.35-1.25 1.04c-.57.48-1.06 1.04-1.44 1.67a6.71 6.71 0 0 0-.12 6.74 6.7 6.7 0 0 0 5.84 3.42c1.15 0 2.25-.29 3.26-.86Z" style="stroke:none;stroke-width:0;stroke-dasharray:none;stroke-linecap:butt;stroke-dashoffset:0;stroke-linejoin:miter;stroke-miterlimit:4;fill:#3fbda8;fill-rule:nonzero;opacity:1" transform="translate(459.952 225.123)scale(1.98893)"/><path d="m35.56 61.08-.03-4.33 3.73-2.19 3.76 2.14.03 4.33-3.73 2.19zm3.7 60.25 3.76-2.14.03-4.33-3.73-2.19-3.76 2.14-.03 4.33zM51.08 18.66c0-.7-.39-1.34-1.01-1.67-.28-.15-.56-.22-.87-.22-.64 0-1.23.33-1.58.87-.2.31-.3.65-.3 1.01 0 1.04.85 1.89 1.89 1.89s1.89-.85 1.89-1.89Zm0 138.57q0-.3-.12-.63c-.27-.75-.98-1.25-1.77-1.25-.15 0-.31.02-.47.07l-.89.53c-.26.27-.52.69-.52 1.29 0 1.04.85 1.89 1.89 1.89s1.89-.85 1.89-1.89ZM10.95 90.04c.33-.59.31-1.32-.04-1.9-.1-.17-.24-.33-.4-.46l-.36-.3-.43-.1c-.13-.03-.26-.05-.38-.05h-.46l-.42.2c-.3.15-.57.4-.76.73-.03.05-.06.09-.09.14-.2.42-.24.87-.11 1.33.14.48.45.89.89 1.13a1.887 1.887 0 0 0 2.56-.72m79.58 7.56 8.36-4.83v-9.66l-8.36-4.83-8.36 4.83v9.66zm51.2-34.39 3.76-2.14.03-4.33-3.73-2.19-3.76 2.14-.03 4.33zm-51.2-29.84 3.75-2.16v-4.33l-3.75-2.16-3.75 2.16v4.33zm0 117.8 3.75-2.16v-4.33l-3.75-2.16-3.75 2.16v4.33zm51.26-29.84 3.73-2.19-.03-4.33-3.76-2.14-3.73 2.19.03 4.33zm-8.04-102.67c0-.37-.1-.7-.3-1.01a1.86 1.86 0 0 0-1.58-.87c-.31 0-.6.07-.87.22-.63.33-1.01.97-1.01 1.67 0 1.04.85 1.89 1.89 1.89s1.89-.85 1.89-1.89Zm0 138.57c0-.59-.26-1.02-.52-1.28l-.89-.53c-.16-.04-.32-.07-.47-.07-.79 0-1.5.5-1.77 1.25q-.12.33-.12.63c0 1.04.85 1.89 1.89 1.89s1.89-.85 1.89-1.89Zm38.91-66.47c.44-.25.76-.65.89-1.13.13-.45.09-.91-.12-1.33l-.09-.15a1.85 1.85 0 0 0-.76-.71l-.42-.21h-.46c-.12 0-.24.02-.38.05l-.43.1-.36.3c-.16.13-.29.29-.4.46-.35.59-.37 1.32-.04 1.9.33.59.97.96 1.65.96.32 0 .62-.08.91-.24Z" style="stroke:none;stroke-width:0;stroke-dasharray:none;stroke-linecap:butt;stroke-dashoffset:0;stroke-linejoin:miter;stroke-miterlimit:4;fill:#b5e3f0;fill-rule:nonzero;opacity:1" transform="translate(459.952 225.123)scale(1.98893)"/></g></svg>