<?xml version="1.0" encoding="UTF-8" standalone="no"?>
<svg
   version="1.1"
   width="1062.1874"
   height="354.66571"
   viewBox="0 0 1062.1874 354.66571"
   xml:space="preserve"
   id="svg35"
   sodipodi:docname="print_transparent.svg"
   inkscape:version="1.2.2 (b0a8486541, 2022-12-01)"
   xmlns:inkscape="http://www.inkscape.org/namespaces/inkscape"
   xmlns:sodipodi="http://sodipodi.sourceforge.net/DTD/sodipodi-0.dtd"
   xmlns="http://www.w3.org/2000/svg"
   xmlns:svg="http://www.w3.org/2000/svg"><sodipodi:namedview
   id="namedview37"
   pagecolor="#ffffff"
   bordercolor="#666666"
   borderopacity="1.0"
   inkscape:showpageshadow="2"
   inkscape:pageopacity="0.0"
   inkscape:pagecheckerboard="0"
   inkscape:deskcolor="#d1d1d1"
   showgrid="false"
   inkscape:zoom="1.0029297"
   inkscape:cx="391.852"
   inkscape:cy="217.86173"
   inkscape:window-width="3774"
   inkscape:window-height="2091"
   inkscape:window-x="0"
   inkscape:window-y="0"
   inkscape:window-maximized="1"
   inkscape:current-layer="svg35" />
<desc
   id="desc2">Created with Fabric.js 5.3.0</desc>
<defs
   id="defs4">
</defs>
<g
   transform="translate(541.19204,217.25165)"
   id="background-logo">
<rect
   style="opacity:1;fill:#ffffff;fill-opacity:0;fill-rule:nonzero;stroke:none;stroke-width:0;stroke-linecap:butt;stroke-linejoin:miter;stroke-miterlimit:4;stroke-dasharray:none;stroke-dashoffset:0"
   paint-order="stroke"
   x="-640"
   y="-512"
   rx="0"
   ry="0"
   width="1280"
   height="1024"
   id="rect6" />
</g>
<g
   transform="matrix(1.9211538,0,0,1.9211538,180.05608,177.33286)"
   id="logo-logo">
<g
   paint-order="stroke"
   id="g26">
		<g
   transform="scale(1.0352781)"
   id="g16">
<linearGradient
   id="SVGID_7_44889"
   gradientUnits="userSpaceOnUse"
   x1="90.529999"
   y1="-2.5799999"
   x2="90.529999"
   y2="251.11">
<stop
   offset="0%"
   style="stop-color:rgb(0,166,81);stop-opacity: 1"
   id="stop9" />
<stop
   offset="100%"
   style="stop-color:rgb(1,0,40);stop-opacity: 1"
   id="stop11" />
</linearGradient>
<path
   style="opacity:1;fill:url(#SVGID_7_44889);fill-rule:nonzero;stroke:none;stroke-width:0;stroke-linecap:butt;stroke-linejoin:miter;stroke-miterlimit:4;stroke-dasharray:none;stroke-dashoffset:0"
   paint-order="stroke"
   transform="translate(-90.525,-89.16)"
   d="m 76.91,40.15 c 0.34,0.32 0.71,0.6 1.12,0.84 l 2.58,1.49 C 75.75,50.92 68.45,54.64 62.66,56.27 58.83,57.35 55.28,57.64 52.65,57.66 52.36,57.41 52.05,57.19 51.71,57 L 50.44,56.28 50.52,66.46 39.4,73 28.18,66.64 28.1,56.39 28.08,53.74 37.03,48.48 c 0.13,-6.45 1.3,-12.45 3.47,-17.9 0.95,1.24 2.14,2.28 3.49,3.07 -1.56,4.41 -2.48,9.33 -2.6,14.8 l 8.37,4.75 c 1.93,0.16 6.67,0.31 11.86,-1.17 6.82,-1.95 11.93,-5.94 15.29,-11.88 z m -59.06,92.69 c -4.9,-8.16 -7.99,-17.75 -8.19,-27.34 -0.12,0 -0.23,0.01 -0.35,0.01 v 0 c -1.37,0 -2.74,-0.25 -4.02,-0.73 0.03,10.2 3.06,20.73 8.82,30.31 5.9,9.82 14.03,17.58 23.3,22.37 0.59,-1.36 1.42,-2.6 2.45,-3.64 -9.13,-4.63 -16.77,-12.27 -22.01,-20.98 z m 42.26,29.28 c 0,0.23 0,0.46 -0.02,0.68 6.03,-0.17 12.06,-1.57 17.97,-4.2 -1.11,-1.01 -1.82,-2.4 -1.97,-3.9 -5.66,2.49 -11.22,3.67 -16.56,3.77 0.37,1.15 0.58,2.38 0.58,3.65 z M 43.18,107.55 c 1.44,-2.22 3.6,-6.1 4.89,-11 1.51,-5.73 2.01,-13.74 -2.57,-22.07 l -3.05,1.79 c -0.24,0.14 -0.49,0.26 -0.74,0.37 3.15,5.75 3.88,12 2.16,18.65 -1.17,4.52 -3.22,8.13 -4.48,10.04 h -0.01 c 0,0 -10.53,5.97 -10.53,5.97 -4.27,-2.78 -7.9,-6.05 -10.84,-9.74 -0.98,1.12 -2.16,2.03 -3.47,2.69 3.38,4.25 7.59,7.99 12.58,11.13 0.31,-0.27 0.64,-0.5 1,-0.71 h 0.02 c 0,0 -0.08,9.91 -0.08,9.91 l 11.12,6.54 11.22,-6.36 0.08,-10.16 v -0.22 c 0,0 21.05,-11.94 21.05,-11.94 -0.71,-1.1 -1.1,-2.4 -1.1,-3.75 v -0.64 l -22.1,12.54 -5.16,-3.03 z m 6.01,-78.36 c 5.14,0 9.31,-4.17 9.31,-9.31 0,-3.57 -2.02,-6.67 -4.97,-8.23 -1.3,-0.68 -2.77,-1.08 -4.34,-1.08 -3.28,0 -6.16,1.7 -7.82,4.27 -0.94,1.45 -1.49,3.18 -1.49,5.04 0,5.14 4.17,9.31 9.31,9.31 z m 0,119.95 c -1.07,0 -2.1,0.19 -3.06,0.53 -2.16,-4.23 -3.67,-9.04 -4.35,-14.44 -1.39,0.6 -2.95,0.66 -4.38,0.17 0.71,5.97 2.38,11.49 4.97,16.47 0.19,-0.11 0.37,-0.21 0.56,-0.31 -1.87,1.7 -3.06,4.15 -3.06,6.88 0,5.14 4.17,9.31 9.31,9.31 5.14,0 9.31,-4.17 9.31,-9.31 0,-1.1 -0.2,-2.15 -0.55,-3.13 -1.29,-3.6 -4.72,-6.18 -8.76,-6.18 z M 4.75,98.46 c 4.48,2.52 10.16,0.92 12.67,-3.56 1.7,-3.03 1.52,-6.6 -0.16,-9.38 -0.53,-0.87 -1.2,-1.66 -2.01,-2.33 2.67,-4.55 6.36,-8.78 11.23,-12.5 C 25.22,69.84 24.34,68.57 23.97,67.12 18.66,71.15 14.42,75.9 11.33,81.27 10.69,81.13 10.05,81.05 9.41,81.04 9.21,79.48 9.09,77.89 9.05,76.27 8.61,57.42 19.54,37.4 35.65,27.58 c 0.88,-0.54 1.77,-1.04 2.67,-1.51 -0.22,-0.92 -0.34,-1.87 -0.34,-2.85 0,-0.66 0.05,-1.3 0.16,-1.93 -1.6,0.76 -3.19,1.61 -4.75,2.56 -8.61,5.24 -15.9,13.05 -21.11,22.57 -5.2,9.52 -7.82,19.88 -7.59,29.95 0.05,1.92 0.2,3.8 0.45,5.65 -1.53,0.76 -2.86,1.96 -3.8,3.53 -0.05,0.08 -0.1,0.16 -0.15,0.24 -2.52,4.48 -0.92,10.16 3.56,12.67 z M 126.25,66.39 104.26,78.86 92.71,72.19 V 46.85 c -0.7,0.27 -1.44,0.41 -2.18,0.41 -0.74,0 -1.48,-0.14 -2.18,-0.41 V 72.19 L 76.8,78.86 54.81,66.39 c -0.22,1.49 -0.99,2.84 -2.15,3.8 l 21.44,12.16 0.66,-0.38 v 16.31 l 15.79,9.11 15.79,-9.11 V 81.97 l 0.66,0.38 21.44,-12.16 c -1.16,-0.96 -1.93,-2.31 -2.15,-3.8 z m -22.1,-26.24 c -0.34,0.32 -0.71,0.6 -1.12,0.84 l -2.58,1.49 c 4.86,8.44 12.16,12.16 17.95,13.79 3.83,1.08 7.38,1.37 10.01,1.39 0.29,-0.25 0.6,-0.47 0.94,-0.66 l 1.27,-0.72 -0.08,10.18 11.12,6.54 11.22,-6.36 0.08,-10.25 0.02,-2.65 -8.95,-5.26 c -0.13,-6.45 -1.3,-12.45 -3.47,-17.9 -0.95,1.24 -2.14,2.28 -3.49,3.07 1.56,4.41 2.48,9.33 2.6,14.8 l -8.37,4.75 c -1.93,0.16 -6.67,0.31 -11.86,-1.17 -6.82,-1.95 -11.93,-5.94 -15.29,-11.88 z M 90.53,0 c -13.7,0 -26.5,4.24 -36.14,11.94 1.47,0.56 2.8,1.41 3.92,2.46 C 67.47,7.61 79.2,4.36 90.52,4.36 c 11.32,0 23.05,3.25 32.21,10.04 1.13,-1.06 2.46,-1.9 3.92,-2.46 C 117.02,4.24 104.22,0 90.53,0 Z m 30.76,164.96 c -8.93,6.09 -20.03,9 -30.76,9 -10.73,0 -21.83,-2.91 -30.76,-9 -0.36,1.46 -0.99,2.81 -1.84,4 9.14,6.07 20.52,9.36 32.61,9.36 12.08,0 23.47,-3.3 32.61,-9.36 -0.85,-1.19 -1.48,-2.54 -1.84,-4 z m 19.91,-11.14 c 1.03,1.04 1.87,2.28 2.45,3.64 9.27,-4.79 17.39,-12.55 23.3,-22.37 5.76,-9.59 8.79,-20.11 8.82,-30.31 -1.29,0.48 -2.65,0.73 -4.02,0.73 v 0 c -0.12,0 -0.23,0 -0.35,-0.01 -0.21,9.59 -3.29,19.18 -8.19,27.34 -5.23,8.71 -12.88,16.35 -22.01,20.98 z m -19.68,4.64 c -5.34,-0.1 -10.9,-1.27 -16.56,-3.77 -0.15,1.51 -0.85,2.9 -1.97,3.9 5.9,2.62 11.94,4.03 17.97,4.2 -0.01,-0.23 -0.02,-0.45 -0.02,-0.68 0,-1.27 0.21,-2.5 0.58,-3.65 z M 100.16,22.92 90.52,17.36 80.88,22.92 c -6.74,-3.57 -13.65,-5.57 -20.51,-6 0.83,1.36 1.4,2.9 1.64,4.54 5.47,0.59 10.97,2.27 16.35,5.06 l 0.98,-0.57 V 36.7 l 11.17,6.45 11.17,-6.45 V 25.95 l 0.98,0.57 c 5.38,-2.79 10.88,-4.47 16.35,-5.06 0.24,-1.64 0.81,-3.18 1.64,-4.54 -6.86,0.42 -13.78,2.42 -20.51,6 z m 27.05,102.02 -0.07,-4.25 c -2.46,0.1 -5.51,0.45 -8.75,1.36 -6.62,1.86 -15.21,6.46 -19.88,17.72 l -5.81,-3.35 v -23.55 c -0.71,0.23 -1.45,0.35 -2.18,0.35 -0.73,0 -1.47,-0.12 -2.18,-0.35 v 23.55 l -5.81,3.35 c -4.67,-11.26 -13.26,-15.86 -19.88,-17.72 -3.24,-0.91 -6.29,-1.26 -8.75,-1.36 l -0.07,4.25 c 0,0 0,0.08 0,0.12 2.15,0.09 4.81,0.41 7.64,1.2 8.85,2.49 14.86,8.37 17.88,17.48 v 10.77 l 11.17,6.45 11.17,-6.45 v -10.77 c 3.02,-9.11 9.03,-15 17.88,-17.48 2.82,-0.79 5.49,-1.11 7.64,-1.2 0,-0.04 0,-0.08 0,-0.12 z m 5.5,-14.36 -22.1,-12.54 v 0.64 c 0,1.35 -0.4,2.65 -1.1,3.75 l 21.05,11.94 v 0.22 c 0,0 0.08,10.16 0.08,10.16 l 11.22,6.36 11.12,-6.54 -0.08,-9.92 h 0.02 c 0.36,0.21 0.69,0.45 1,0.72 4.99,-3.14 9.2,-6.88 12.58,-11.13 -1.31,-0.67 -2.49,-1.58 -3.47,-2.69 -2.94,3.69 -6.57,6.96 -10.84,9.74 l -10.53,-5.97 h -0.01 c -1.26,-1.91 -3.31,-5.51 -4.48,-10.04 -1.72,-6.66 -0.99,-12.91 2.16,-18.65 -0.25,-0.11 -0.5,-0.23 -0.74,-0.37 l -3.05,-1.79 c -4.57,8.33 -4.08,16.34 -2.57,22.07 1.29,4.9 3.45,8.78 4.89,11 l -5.16,3.03 z m 8.46,-90.7 c 0,-1.86 -0.55,-3.58 -1.49,-5.04 -1.66,-2.57 -4.54,-4.27 -7.82,-4.27 -1.57,0 -3.04,0.39 -4.34,1.08 -2.95,1.56 -4.97,4.66 -4.97,8.23 0,5.14 4.17,9.31 9.31,9.31 5.14,0 9.31,-4.17 9.31,-9.31 z M 123.1,155.32 c -0.35,0.98 -0.55,2.03 -0.55,3.13 0,5.14 4.17,9.31 9.31,9.31 5.14,0 9.31,-4.17 9.31,-9.31 0,-2.73 -1.18,-5.18 -3.06,-6.88 0.19,0.1 0.38,0.2 0.56,0.31 2.59,-4.98 4.26,-10.5 4.97,-16.47 -1.42,0.49 -2.98,0.43 -4.38,-0.17 -0.68,5.4 -2.19,10.21 -4.35,14.44 -0.96,-0.33 -1.99,-0.53 -3.06,-0.53 -4.04,0 -7.47,2.58 -8.76,6.18 z m 56.76,-69.54 c -0.05,-0.08 -0.1,-0.16 -0.15,-0.24 -0.94,-1.56 -2.27,-2.76 -3.8,-3.53 0.25,-1.84 0.41,-3.73 0.45,-5.65 0.24,-10.08 -2.39,-20.43 -7.59,-29.95 -5.2,-9.52 -12.5,-17.32 -21.11,-22.57 -1.56,-0.95 -3.15,-1.8 -4.75,-2.56 0.1,0.63 0.16,1.27 0.16,1.93 0,0.98 -0.12,1.94 -0.34,2.85 0.9,0.47 1.79,0.97 2.67,1.51 16.11,9.81 27.04,29.83 26.6,48.69 -0.04,1.62 -0.16,3.21 -0.36,4.77 -0.64,0 -1.28,0.08 -1.92,0.23 -3.09,-5.37 -7.33,-10.12 -12.64,-14.15 -0.36,1.45 -1.25,2.73 -2.51,3.57 4.87,3.72 8.56,7.95 11.23,12.5 -0.81,0.67 -1.49,1.46 -2.01,2.33 -1.68,2.78 -1.86,6.35 -0.16,9.38 2.52,4.48 8.19,6.08 12.67,3.56 4.48,-2.52 6.08,-8.19 3.56,-12.67 z M 17.85,132.84 c -4.9,-8.16 -7.99,-17.75 -8.19,-27.34 -0.12,0 -0.23,0.01 -0.35,0.01 v 0 c -1.37,0 -2.74,-0.25 -4.02,-0.73 0.03,10.2 3.06,20.73 8.82,30.31 5.9,9.82 14.03,17.58 23.3,22.37 0.59,-1.36 1.42,-2.6 2.45,-3.64 -9.13,-4.63 -16.77,-12.27 -22.01,-20.98 z m 42.26,29.28 c 0,0.23 0,0.46 -0.02,0.68 6.03,-0.17 12.06,-1.57 17.97,-4.2 -1.11,-1.01 -1.82,-2.4 -1.97,-3.9 -5.66,2.49 -11.22,3.67 -16.56,3.77 0.37,1.15 0.58,2.38 0.58,3.65 z M 90.53,0 c -13.7,0 -26.5,4.24 -36.14,11.94 1.47,0.56 2.8,1.41 3.92,2.46 C 67.47,7.61 79.2,4.36 90.52,4.36 c 11.32,0 23.05,3.25 32.21,10.04 1.13,-1.06 2.46,-1.9 3.92,-2.46 C 117.02,4.24 104.22,0 90.53,0 Z m 30.76,164.96 c -8.93,6.09 -20.03,9 -30.76,9 -10.73,0 -21.83,-2.91 -30.76,-9 -0.36,1.46 -0.99,2.81 -1.84,4 9.14,6.07 20.52,9.36 32.61,9.36 12.08,0 23.47,-3.3 32.61,-9.36 -0.85,-1.19 -1.48,-2.54 -1.84,-4 z m 19.91,-11.14 c 1.03,1.04 1.87,2.28 2.45,3.64 9.27,-4.79 17.39,-12.55 23.3,-22.37 5.76,-9.59 8.79,-20.11 8.82,-30.31 -1.29,0.48 -2.65,0.73 -4.02,0.73 v 0 c -0.12,0 -0.23,0 -0.35,-0.01 -0.21,9.59 -3.29,19.18 -8.19,27.34 -5.23,8.71 -12.88,16.35 -22.01,20.98 z m -19.68,4.64 c -5.34,-0.1 -10.9,-1.27 -16.56,-3.77 -0.15,1.51 -0.85,2.9 -1.97,3.9 5.9,2.62 11.94,4.03 17.97,4.2 -0.01,-0.23 -0.02,-0.45 -0.02,-0.68 0,-1.27 0.21,-2.5 0.58,-3.65 z"
   stroke-linecap="round"
   id="path14" />
</g>
		<g
   transform="matrix(1.0352781,0,0,1.0352781,0.00517639,0.00333458)"
   id="g20">
<path
   style="opacity:1;fill:#3fbda8;fill-rule:nonzero;stroke:none;stroke-width:0;stroke-linecap:butt;stroke-linejoin:miter;stroke-miterlimit:4;stroke-dasharray:none;stroke-dashoffset:0"
   paint-order="stroke"
   transform="translate(-90.53,-89.163221)"
   d="m 30.78,65.1 -0.08,-9.87 8.51,-5 8.59,4.87 0.08,9.87 -8.51,5 z m 8.44,62.99 8.59,-4.87 0.08,-9.87 -8.51,-5 -8.59,4.87 -0.08,9.87 z M 55.88,19.88 c 0,-2.48 -1.37,-4.75 -3.57,-5.92 -0.97,-0.51 -2.02,-0.77 -3.11,-0.77 -2.28,0 -4.38,1.15 -5.62,3.07 -0.7,1.08 -1.07,2.33 -1.07,3.62 0,3.69 3,6.69 6.69,6.69 3.69,0 6.69,-3 6.69,-6.69 z m 0,138.57 c 0,-0.75 -0.13,-1.51 -0.4,-2.25 -0.95,-2.66 -3.48,-4.44 -6.29,-4.44 -0.73,0 -1.47,0.13 -2.2,0.38 l -0.07,0.02 c -1.75,0.58 -3.17,1.91 -3.87,3.62 v 0 c -0.32,0.72 -0.54,1.58 -0.55,2.58 -0.04,3.39 2.53,6.34 5.9,6.73 4.04,0.47 7.48,-2.69 7.48,-6.64 z M 15.14,93.61 c 1.18,-2.09 1.13,-4.68 -0.12,-6.74 -0.38,-0.63 -0.87,-1.2 -1.44,-1.67 L 12.33,84.16 10.77,83.81 C 10.31,83.71 9.85,83.65 9.39,83.65 L 7.77,83.63 6.32,84.36 C 5.2,84.92 4.25,85.8 3.59,86.9 l -0.14,0.23 -0.06,0.12 c -0.79,1.52 -0.97,3.26 -0.51,4.91 0.48,1.72 1.61,3.15 3.16,4.02 1.01,0.57 2.11,0.86 3.27,0.86 2.42,0 4.66,-1.31 5.84,-3.42 z m 75.39,10.75 13.17,-7.6 v -15.2 l -13.17,-7.6 -13.17,7.6 v 15.2 z m 51.15,-34.38 8.59,-4.87 0.08,-9.87 -8.51,-5 -8.59,4.87 -0.08,9.87 z M 90.53,40.13 99.08,35.19 v -9.87 l -8.55,-4.94 -8.55,4.94 v 9.87 z m 0,117.81 8.55,-4.94 v -9.87 l -8.55,-4.94 -8.55,4.94 V 153 Z m 51.31,-29.85 8.51,-5 -0.08,-9.87 -8.59,-4.87 -8.51,5 0.08,9.87 z M 138.55,19.88 c 0,-1.28 -0.37,-2.53 -1.07,-3.62 -1.24,-1.92 -3.34,-3.07 -5.62,-3.07 -1.1,0 -2.14,0.26 -3.11,0.77 -2.2,1.16 -3.57,3.43 -3.57,5.92 0,3.69 3,6.69 6.69,6.69 3.69,0 6.69,-3 6.69,-6.69 z m 0,138.57 c 0,-1.04 -0.23,-1.93 -0.55,-2.67 v 0 c -0.76,-1.59 -2.08,-2.84 -3.69,-3.54 l -0.25,-0.11 c -0.72,-0.25 -1.46,-0.38 -2.2,-0.38 -2.81,0 -5.34,1.78 -6.29,4.44 -0.55,1.55 -0.54,3.17 0.09,4.69 1.11,2.69 3.71,4.41 6.61,4.24 3.5,-0.21 6.28,-3.13 6.28,-6.68 z m 36.46,-62.28 c 1.56,-0.87 2.68,-2.3 3.17,-4.02 0.46,-1.65 0.28,-3.39 -0.51,-4.91 l -0.06,-0.12 -0.14,-0.23 c -0.66,-1.1 -1.6,-1.97 -2.73,-2.53 l -1.45,-0.73 -1.62,0.02 c -0.45,0 -0.92,0.06 -1.38,0.16 l -1.56,0.35 -1.25,1.04 c -0.57,0.48 -1.06,1.04 -1.44,1.67 -1.25,2.06 -1.29,4.65 -0.12,6.74 1.18,2.11 3.42,3.42 5.84,3.42 1.15,0 2.25,-0.29 3.26,-0.86 z"
   stroke-linecap="round"
   id="path18" />
</g>
		<g
   transform="matrix(1.0352781,0,0,1.0352781,-2.943415e-4,-1.2526865)"
   id="g24">
<path
   style="opacity:1;fill:#b5e3f0;fill-rule:nonzero;stroke:none;stroke-width:0;stroke-linecap:butt;stroke-linejoin:miter;stroke-miterlimit:4;stroke-dasharray:none;stroke-dashoffset:0"
   paint-order="stroke"
   transform="translate(-90.524716,-87.95)"
   d="m 35.56,61.08 -0.03,-4.33 3.73,-2.19 3.76,2.14 0.03,4.33 -3.73,2.19 z m 3.7,60.25 3.76,-2.14 0.03,-4.33 -3.73,-2.19 -3.76,2.14 -0.03,4.33 z M 51.08,18.66 c 0,-0.7 -0.39,-1.34 -1.01,-1.67 -0.28,-0.15 -0.56,-0.22 -0.87,-0.22 -0.64,0 -1.23,0.33 -1.58,0.87 -0.2,0.31 -0.3,0.65 -0.3,1.01 0,1.04 0.85,1.89 1.89,1.89 1.04,0 1.89,-0.85 1.89,-1.89 z m 0,138.57 c 0,-0.2 -0.04,-0.41 -0.12,-0.63 -0.27,-0.75 -0.98,-1.25 -1.77,-1.25 -0.15,0 -0.31,0.02 -0.47,0.07 l -0.89,0.53 c -0.26,0.27 -0.52,0.69 -0.52,1.29 0,1.04 0.85,1.89 1.89,1.89 1.04,0 1.89,-0.85 1.89,-1.89 z M 10.95,90.04 c 0.33,-0.59 0.31,-1.32 -0.04,-1.9 -0.1,-0.17 -0.24,-0.33 -0.4,-0.46 l -0.36,-0.3 -0.43,-0.1 C 9.59,87.25 9.46,87.23 9.34,87.23 H 8.88 c 0,0 -0.42,0.2 -0.42,0.2 -0.3,0.15 -0.57,0.4 -0.76,0.73 -0.03,0.05 -0.06,0.09 -0.09,0.14 -0.2,0.42 -0.24,0.87 -0.11,1.33 0.14,0.48 0.45,0.89 0.89,1.13 0.29,0.16 0.59,0.24 0.91,0.24 0.69,0 1.32,-0.37 1.65,-0.96 z m 79.58,7.56 8.36,-4.83 v -9.66 l -8.36,-4.83 -8.36,4.83 v 9.66 z m 51.2,-34.39 3.76,-2.14 0.03,-4.33 -3.73,-2.19 -3.76,2.14 -0.03,4.33 z m -51.2,-29.84 3.75,-2.16 v -4.33 l -3.75,-2.16 -3.75,2.16 v 4.33 z m 0,117.8 3.75,-2.16 v -4.33 l -3.75,-2.16 -3.75,2.16 v 4.33 z m 51.26,-29.84 3.73,-2.19 -0.03,-4.33 -3.76,-2.14 -3.73,2.19 0.03,4.33 z M 133.75,18.66 c 0,-0.37 -0.1,-0.7 -0.3,-1.01 -0.35,-0.55 -0.94,-0.87 -1.58,-0.87 -0.31,0 -0.6,0.07 -0.87,0.22 -0.63,0.33 -1.01,0.97 -1.01,1.67 0,1.04 0.85,1.89 1.89,1.89 1.04,0 1.89,-0.85 1.89,-1.89 z m 0,138.57 c 0,-0.59 -0.26,-1.02 -0.52,-1.28 l -0.89,-0.53 c -0.16,-0.04 -0.32,-0.07 -0.47,-0.07 -0.79,0 -1.5,0.5 -1.77,1.25 -0.08,0.22 -0.12,0.43 -0.12,0.63 0,1.04 0.85,1.89 1.89,1.89 1.04,0 1.89,-0.85 1.89,-1.89 z m 38.91,-66.47 c 0.44,-0.25 0.76,-0.65 0.89,-1.13 0.13,-0.45 0.09,-0.91 -0.12,-1.33 -0.03,-0.05 -0.06,-0.1 -0.09,-0.15 -0.19,-0.31 -0.45,-0.56 -0.76,-0.71 l -0.42,-0.21 h -0.46 c -0.12,0 -0.24,0.02 -0.38,0.05 l -0.43,0.1 -0.36,0.3 c -0.16,0.13 -0.29,0.29 -0.4,0.46 -0.35,0.59 -0.37,1.32 -0.04,1.9 0.33,0.59 0.97,0.96 1.65,0.96 0.32,0 0.62,-0.08 0.91,-0.24 z"
   stroke-linecap="round"
   id="path22" />
</g>
</g>
</g>
<g
   transform="matrix(1.9211538,0,0,1.9211538,730.96124,172.67344)"
   id="text-logo">
<g
   paint-order="stroke"
   id="g32">
		<g
   id="text-logo-path-0">
<path
   style="opacity:1;fill:#3fbda8;fill-rule:nonzero;stroke:none;stroke-width:0;stroke-linecap:butt;stroke-linejoin:miter;stroke-miterlimit:4;stroke-dasharray:none;stroke-dashoffset:0"
   paint-order="stroke"
   transform="translate(-173.58,17.815)"
   d="M 18.18,-27.49 9.24,0 H 1.17 l 12.3,-35.64 h 9.71 L 35.46,0 H 27.39 L 18.46,-27.49 Z M 8.74,-8.13 v -5.88 h 19.07 v 5.88 z M 71.72,0 H 48.91 v -35.64 h 7.53 v 29.43 h 15.28 z m 21.69,0 h -7.53 v -35.64 h 7.53 v 15.72 h 0.47 l 12.82,-15.72 h 9.03 L 102.51,-19.68 115.89,0 h -9.01 l -9.76,-14.65 -3.71,4.52 z m 59.5,0 h -24.08 v -35.64 h 24.01 v 6.22 h -16.48 v 8.49 h 15.25 v 6.21 h -15.25 v 8.51 h 16.55 z m 45.18,-29.42 h -10.91 v -6.22 h 29.26 v 6.22 H 205.53 V 0 h -7.44 z M 254.53,0 h -24.08 v -35.64 h 24.01 v 6.22 h -16.48 v 8.49 h 15.24 v 6.21 h -15.24 v 8.51 h 16.55 z m 46.54,-23.16 v 0 h -7.62 q -0.21,-1.48 -0.86,-2.64 -0.64,-1.15 -1.65,-1.97 -1.01,-0.82 -2.32,-1.25 -1.32,-0.44 -2.85,-0.44 v 0 q -2.76,0 -4.82,1.37 -2.05,1.36 -3.18,3.96 -1.13,2.61 -1.13,6.31 v 0 q 0,3.81 1.14,6.41 1.14,2.59 3.19,3.91 2.05,1.32 4.75,1.32 v 0 q 1.51,0 2.81,-0.4 1.3,-0.4 2.31,-1.17 1,-0.78 1.67,-1.89 0.67,-1.11 0.94,-2.54 v 0 l 7.62,0.03 q -0.3,2.46 -1.47,4.73 -1.18,2.27 -3.15,4.05 -1.98,1.79 -4.7,2.82 -2.72,1.04 -6.15,1.04 v 0 q -4.77,0 -8.52,-2.16 -3.75,-2.16 -5.92,-6.25 -2.16,-4.09 -2.16,-9.9 v 0 q 0,-5.83 2.19,-9.92 2.19,-4.09 5.95,-6.23 3.76,-2.15 8.46,-2.15 v 0 q 3.1,0 5.75,0.87 2.65,0.87 4.71,2.53 2.05,1.66 3.35,4.06 1.29,2.4 1.66,5.5 z M 323.18,0 h -7.54 v -35.64 h 7.54 v 14.71 h 15.29 v -14.71 h 7.52 V 0 h -7.52 v -14.72 h -15.29 z"
   stroke-linecap="round"
   id="path29" />
</g>
</g>
</g>
</svg>
